<?xml version="1.0" encoding="UTF-8" standalone="no"?>
<!-- Created with Inkscape (http://www.inkscape.org/) -->

<svg
   width="32"
   height="31.999987"
   viewBox="0 0 32 31.999987"
   version="1.1"
   id="svg1"
   inkscape:version="1.3.2 (091e20ef0f, 2023-11-25, custom)"
   sodipodi:docname="keyboard-num-enabled.svg"
   xmlns:inkscape="http://www.inkscape.org/namespaces/inkscape"
   xmlns:sodipodi="http://sodipodi.sourceforge.net/DTD/sodipodi-0.dtd"
   xmlns="http://www.w3.org/2000/svg"
   xmlns:svg="http://www.w3.org/2000/svg">
  <sodipodi:namedview
     id="namedview1"
     pagecolor="#3a3a3a"
     bordercolor="#a6a6a6"
     borderopacity="1"
     inkscape:showpageshadow="0"
     inkscape:pageopacity="0"
     inkscape:pagecheckerboard="1"
     inkscape:deskcolor="#1a1a1a"
     inkscape:document-units="px"
     guidecolor="#91a666"
     guideopacity="0.6"
     guidehicolor="#a66966"
     guidehiopacity="0.49803922"
     inkscape:zoom="11.983333"
     inkscape:cx="10.222532"
     inkscape:cy="13.435327"
     inkscape:window-width="1402"
     inkscape:window-height="867"
     inkscape:window-x="0"
     inkscape:window-y="0"
     inkscape:window-maximized="1"
     inkscape:current-layer="layer1" />
  <defs
     id="defs1" />
  <g
     inkscape:label="Layer 1"
     inkscape:groupmode="layer"
     id="layer1"
     transform="translate(-698.70858,-619.29243)">
    <path
       style="font-weight:bold;font-size:46.5124px;line-height:1;font-family:'Liberation Sans';-inkscape-font-specification:'Liberation Sans Bold';text-align:center;text-anchor:middle;fill:#ffffff;stroke-width:7.33835;stroke-linecap:round;stroke-linejoin:round;stroke-opacity:0.999877"
       d="m 705.91582,648.29242 c 0,-1.28555 0,-2.57109 0,-3.85664 2.14667,0 4.29335,0 6.44002,0 0,-5.91104 0,-11.8221 0,-17.73314 -2.07901,1.29785 -4.15802,2.59569 -6.23704,3.89354 0,-1.35935 0,-2.71871 0,-4.07807 2.19559,-1.39714 4.36417,-2.8855 6.57661,-4.22569 1.61523,0 3.23045,0 4.84567,0 0,7.38112 0,14.76224 0,22.14336 1.98675,0 3.97351,0 5.96026,0 0,1.28555 0,2.57109 0,3.85664 -5.86184,0 -11.72368,0 -17.58552,0 z"
       id="text1"
       aria-label="1" />
  </g>
</svg>
