<?xml version="1.0" encoding="UTF-8" standalone="no"?>
<!-- Created with Inkscape (http://www.inkscape.org/) -->

<svg
   width="32"
   height="31.999987"
   viewBox="0 0 32 31.999987"
   version="1.1"
   id="svg1"
   inkscape:version="1.3.2 (091e20ef0f, 2023-11-25, custom)"
   sodipodi:docname="keyboard-num-disabled.svg"
   xmlns:inkscape="http://www.inkscape.org/namespaces/inkscape"
   xmlns:sodipodi="http://sodipodi.sourceforge.net/DTD/sodipodi-0.dtd"
   xmlns="http://www.w3.org/2000/svg"
   xmlns:svg="http://www.w3.org/2000/svg">
  <sodipodi:namedview
     id="namedview1"
     pagecolor="#3a3a3a"
     bordercolor="#a6a6a6"
     borderopacity="1"
     inkscape:showpageshadow="0"
     inkscape:pageopacity="0"
     inkscape:pagecheckerboard="1"
     inkscape:deskcolor="#1a1a1a"
     inkscape:document-units="px"
     guidecolor="#91a666"
     guideopacity="0.6"
     guidehicolor="#a66966"
     guidehiopacity="0.49803922"
     inkscape:zoom="16.946992"
     inkscape:cx="13.601234"
     inkscape:cy="13.512722"
     inkscape:window-width="1402"
     inkscape:window-height="867"
     inkscape:window-x="0"
     inkscape:window-y="0"
     inkscape:window-maximized="1"
     inkscape:current-layer="layer1" />
  <defs
     id="defs1" />
  <g
     inkscape:label="Layer 1"
     inkscape:groupmode="layer"
     id="layer1"
     transform="translate(-698.70858,-619.29243)">
    <path
       style="font-weight:bold;font-size:46.5124px;line-height:1;font-family:'Liberation Sans';-inkscape-font-specification:'Liberation Sans Bold';text-align:center;text-anchor:middle;fill:none;stroke:#ffffff;stroke-width:1.52941;stroke-linecap:round;stroke-linejoin:round;stroke-dasharray:none;stroke-opacity:0.999877"
       d="m 706.43305,647.52772 c 0,-1.20993 0,-2.41985 0,-3.62977 2.0204,0 4.0408,0 6.06119,0 0,-5.56335 0,-11.12669 0,-16.69002 -1.95672,1.2215 -3.91344,2.443 -5.87016,3.6645 0,-1.27939 0,-2.55879 0,-3.83818 2.06643,-1.31495 4.10745,-2.71577 6.18975,-3.97712 1.52022,0 3.04042,0 4.56062,0 0,6.94693 0,13.89388 0,20.84082 1.8699,0 3.73978,0 5.60966,0 0,1.20992 0,2.41984 0,3.62977 -5.51702,0 -11.03405,0 -16.55106,0 z"
       id="text1"
       aria-label="1" />
  </g>
</svg>
